<svg xmlns="http://www.w3.org/2000/svg" viewBox="0 0 512 512">
<path class="st0" d="M438.178 16.73h-32.125V43.5h32.125c9.77 0 17.801 7.898 17.801 17.672v69.23H56.018v-69.23c0-9.774 8.031-17.672 17.805-17.672h31.988V16.73H73.822c-24.496 0-44.574 19.946-44.574 44.442v406.386c0 24.496 20.078 44.442 44.574 44.442h364.355c24.496 0 44.574-19.946 44.574-44.442V61.172c.001-24.496-20.077-44.442-44.573-44.442zm13.804 144.442v74.019H359.99v-74.019H451.982zm0 82.019v74.02H359.99v-74.02H451.982zm-.156 82.145l-56.582 45.527-35.254 28.242v-73.894h51.492l40.344.125zM359.99 407.23H451.982v71.344a18.112 18.112 0 01-2.699 2.676H359.99v-74.02zm-8-246.058v74.019h-91.989v-74.019h91.989zm-.156 82.145l-56.578 45.527-35.254 28.242v-73.894h51.493l40.339.125zm.156 81.894v74.019h-91.989v-74.019h91.989zm0 82.019v74.02h-91.989v-74.02h91.989zM251.846 161.297l-56.582 45.527-35.254 28.242v-73.894h51.492l40.344.125zm.156 81.894v74.02H160.01v-74.02H252.002zm0 82.02v74.019H160.01v-74.019H252.002zm0 82.019v74.02H160.01v-74.02H252.002zM152.01 161.172v74.019H60.022v-74.019h91.988zm0 82.019v74.02H60.022v-74.02h91.988zm-.156 82.145l-56.578 45.527-35.254 28.242v-73.894h51.492l40.34.125zM60.022 407.23h91.988v74.02H62.717a17.873 17.873 0 01-2.695-2.672V407.23z" fill="#4b4b4b"/><path class="st0" fill="#4b4b4b" d="M173.943 16.73h164.11V43.5h-164.11zM139.943 88.614c5.758 0 10.309-4.551 10.309-10.309V10.304C150.252 4.55 145.701 0 139.943 0c-5.754 0-10.305 4.55-10.305 10.305v68c0 5.757 4.552 10.309 10.305 10.309zM372.053 88.614c5.754 0 10.309-4.551 10.309-10.309V10.304C382.362 4.55 377.806 0 372.053 0c-5.754 0-10.309 4.55-10.309 10.305v68c0 5.757 4.554 10.309 10.309 10.309z"/>
</svg>